<?xml version="1.0" encoding="UTF-8" standalone="no"?>
<svg
   version="1.1"
   id="svg3459"
   x="0px"
   y="0px"
   width="2288.1528"
   height="403.75702"
   viewBox="0 0 2288.1528 403.75702"
   enable-background="new 0 0 1394 1394"
   xml:space="preserve"
   sodipodi:docname="logochico.svg"
   inkscape:version="1.1.1 (3bf5ae0d25, 2021-09-20)"
   xmlns:inkscape="http://www.inkscape.org/namespaces/inkscape"
   xmlns:sodipodi="http://sodipodi.sourceforge.net/DTD/sodipodi-0.dtd"
   xmlns="http://www.w3.org/2000/svg"
   xmlns:svg="http://www.w3.org/2000/svg"><defs
   id="defs3463"><inkscape:path-effect
     effect="bspline"
     id="path-effect20317"
     is_visible="true"
     lpeversion="1"
     weight="33.333333"
     steps="2"
     helper_size="0"
     apply_no_weight="true"
     apply_with_weight="true"
     only_selected="false" /><clipPath
     clipPathUnits="userSpaceOnUse"
     id="clipPath6045"><path
       d="M 0,90 H 288 V 0 H 0 Z"
       id="path6043" /></clipPath><clipPath
     clipPathUnits="userSpaceOnUse"
     id="clipPath10589"><path
       d="M 0,2.12109 H 910 V 1082.1211 H 0 Z"
       id="path10587" /></clipPath></defs><sodipodi:namedview
   id="namedview3461"
   pagecolor="#ffffff"
   bordercolor="#666666"
   borderopacity="1.0"
   inkscape:pageshadow="2"
   inkscape:pageopacity="0.0"
   inkscape:pagecheckerboard="0"
   showgrid="false"
   inkscape:zoom="0.20898708"
   inkscape:cx="485.67596"
   inkscape:cy="605.30058"
   inkscape:window-width="1920"
   inkscape:window-height="1009"
   inkscape:window-x="-8"
   inkscape:window-y="-8"
   inkscape:window-maximized="1"
   inkscape:current-layer="svg3459"
   fit-margin-top="0"
   fit-margin-left="0"
   fit-margin-right="0"
   fit-margin-bottom="0" />
<g
   id="g18319"
   transform="matrix(1.2687186,0,0,1.2687186,-2348.8405,-712.61821)"><text
     xml:space="preserve"
     style="font-size:95.7701px;line-height:1.25;font-family:Formata;-inkscape-font-specification:Formata;fill:#035b98;fill-opacity:1;stroke-width:0.997605"
     x="2160.625"
     y="636.76288"
     id="text6686"
     transform="scale(0.99760523,1.0024005)"><tspan
       sodipodi:role="line"
       id="tspan6684"
       x="2160.625"
       y="636.76288"
       style="font-weight:bold;font-size:95.7701px;fill:#035b98;fill-opacity:1;stroke-width:0.997605">Universidad Tecnológica Nacional</tspan><tspan
       sodipodi:role="line"
       x="2160.625"
       y="756.57129"
       id="tspan7908"
       style="font-weight:bold;font-size:95.7701px;fill:#035b98;fill-opacity:1;stroke-width:0.997605">Facultad Regional Córdoba</tspan><tspan
       sodipodi:role="line"
       x="2160.625"
       y="876.3797"
       style="font-size:95.7701px;fill:#035b98;fill-opacity:1;stroke-width:0.997605"
       id="tspan17108">IEEE Student Branch</tspan></text><g
     id="g10585"
     clip-path="url(#clipPath10589)"
     transform="matrix(0.29634414,0,0,-0.29634414,1851.3487,882.34557)"
     style="fill:#035b98;fill-opacity:1;stroke:#035b98;stroke-opacity:1"><path
       d="M 451.25,1075.48 H 369.73 V 807.551 c 0,0 -90.199,34.488 -142.429,108.121 -61.563,86.798 -49.531,162.388 -49.531,162.388 H 7.73047 c 0,0 -12.85156,-343.951 347.82053,-449.572 H 3.87109 V 546.059 H 450.859 v 512.661 z"
       style="fill:#035b98;fill-opacity:1;fill-rule:nonzero;stroke:#035b98;stroke-opacity:1"
       id="path10591" /><path
       d="M 451.25,1075.48 H 369.73 V 807.547 c 0,0 -90.199,34.492 -142.429,108.121 -61.563,86.802 -49.531,162.392 -49.531,162.392 H 7.73047 c 0,0 -12.85156,-343.951 347.82053,-449.572 H 3.87109 V 546.07 H 450.859 v 512.65 z"
       style="fill:#035b98;fill-opacity:1;stroke:#035b98;stroke-width:8;stroke-linecap:butt;stroke-linejoin:miter;stroke-miterlimit:4;stroke-dasharray:none;stroke-opacity:1"
       id="path10593" /><path
       d="M 451.25,1075.48 H 369.73 V 807.551 c 0,0 -90.199,34.488 -142.429,108.121 -61.563,86.798 -49.531,162.388 -49.531,162.388 H 7.73047 c 0,0 -12.85156,-343.951 347.82053,-449.572 H 3.87109 V 546.059 H 450.859 v 512.661 z"
       style="fill:#035b98;fill-opacity:1;fill-rule:nonzero;stroke:#035b98;stroke-opacity:1"
       id="path10595" /><path
       d="M 451.25,1075.48 H 369.73 V 807.547 c 0,0 -90.199,34.492 -142.429,108.121 -61.563,86.802 -49.531,162.392 -49.531,162.392 H 7.73047 c 0,0 -12.85156,-343.951 347.82053,-449.572 H 3.87109 V 546.07 H 450.859 v 512.65 z"
       style="fill:#035b98;fill-opacity:1;stroke:#035b98;stroke-width:8;stroke-linecap:butt;stroke-linejoin:miter;stroke-miterlimit:4;stroke-dasharray:none;stroke-opacity:1"
       id="path10597" /><path
       d="M 451.25,16.6484 H 369.73 V 284.578 c 0,0 -90.199,-34.488 -142.429,-108.129 C 165.738,89.6602 177.77,14.0703 177.77,14.0703 H 7.73047 c 0,0 -12.85156,343.9097 347.82053,449.5317 H 3.87109 v 82.457 H 450.859 V 33.3711 Z"
       style="fill:#035b98;fill-opacity:1;fill-rule:nonzero;stroke:#035b98;stroke-opacity:1"
       id="path10599" /><path
       d="M 451.25,16.6484 H 369.73 V 284.578 c 0,0 -90.199,-34.488 -142.429,-108.121 C 165.738,89.6602 177.77,14.0703 177.77,14.0703 H 7.73047 c 0,0 -12.85156,343.9097 347.82053,449.5277 H 3.87109 V 546.07 H 450.859 V 33.3672 Z"
       style="fill:#035b98;fill-opacity:1;stroke:#035b98;stroke-width:8;stroke-linecap:butt;stroke-linejoin:miter;stroke-miterlimit:4;stroke-dasharray:none;stroke-opacity:1"
       id="path10601" /><path
       d="m 451.25,1075.48 h 81.52 V 807.551 c 0,0 90.199,34.488 142.429,108.121 61.563,86.798 49.531,162.388 49.531,162.388 h 170.04 c 0,0 12.851,-343.951 -347.821,-449.572 h 351.68 V 546.059 H 451.641 v 512.661 z"
       style="fill:#035b98;fill-opacity:1;fill-rule:nonzero;stroke:#035b98;stroke-opacity:1"
       id="path10603" /><path
       d="m 451.25,1075.48 h 81.52 V 807.547 c 0,0 90.199,34.492 142.429,108.121 61.563,86.802 49.531,162.392 49.531,162.392 h 170.04 c 0,0 12.851,-343.951 -347.821,-449.572 h 351.68 V 546.07 H 451.641 v 512.65 z"
       style="fill:#035b98;fill-opacity:1;stroke:#035b98;stroke-width:8;stroke-linecap:butt;stroke-linejoin:miter;stroke-miterlimit:4;stroke-dasharray:none;stroke-opacity:1"
       id="path10605" /><path
       d="m 451.25,16.6484 h 81.52 V 284.578 c 0,0 90.199,-34.488 142.429,-108.129 C 736.762,89.6602 724.73,14.0703 724.73,14.0703 h 170.04 c 0,0 12.851,343.9097 -347.821,449.5317 h 351.68 v 82.457 H 451.641 V 33.3711 Z"
       style="fill:#035b98;fill-opacity:1;fill-rule:nonzero;stroke:#035b98;stroke-opacity:1"
       id="path10607" /><path
       d="m 451.25,16.6484 h 81.52 V 284.578 c 0,0 90.199,-34.488 142.429,-108.121 C 736.762,89.6602 724.73,14.0703 724.73,14.0703 h 170.04 c 0,0 12.851,343.9097 -347.821,449.5277 h 351.68 V 546.07 H 451.641 V 33.3672 Z"
       style="fill:#035b98;fill-opacity:1;stroke:#035b98;stroke-width:8;stroke-linecap:butt;stroke-linejoin:miter;stroke-miterlimit:4;stroke-dasharray:none;stroke-opacity:1"
       id="path10609" /></g></g></svg>
